<svg width="36" height="36" viewBox="0 0 36 36" fill="none" xmlns="http://www.w3.org/2000/svg">
<circle cx="18" cy="18" r="17" stroke="white" stroke-width="2"/>
<path fill-rule="evenodd" clip-rule="evenodd" d="M19.4144 18.0001L25.0711 23.6569C25.4615 24.0472 25.4615 24.6808 25.0711 25.0711C24.68 25.4621 24.0472 25.4614 23.6568 25.0711L18.0001 19.4143L12.3434 25.0711C11.953 25.4614 11.3202 25.4621 10.929 25.0711C10.5389 24.6808 10.5389 24.0472 10.929 23.6569L16.5858 18.0001L10.929 12.3432C10.5387 11.9528 10.5379 11.32 10.929 10.9289C11.3192 10.5386 11.953 10.5386 12.3431 10.9289L18.0001 16.5859L23.6571 10.9289C24.0475 10.5386 24.681 10.5386 25.0711 10.9289C25.4622 11.32 25.4615 11.9528 25.0711 12.3432L19.4144 18.0001Z" fill="white"/>
</svg>
