<svg width="36" height="36" viewBox="0 0 36 36" fill="none" xmlns="http://www.w3.org/2000/svg">
<rect width="36" height="36" fill="black" fill-opacity="0"/>
<path fill-rule="evenodd" clip-rule="evenodd" d="M30 3H12C10.35 3 9 4.35 9 6V24C9 25.65 10.35 27 12 27H30C31.65 27 33 25.65 33 24V6C33 4.35 31.65 3 30 3ZM17.25 14.25C17.25 15.495 16.245 16.5 15 16.5H13.5V19.5H11.25V10.5H15C16.245 10.5 17.25 11.505 17.25 12.75V14.25ZM24.75 17.25C24.75 18.495 23.745 19.5 22.5 19.5H18.75V10.5H22.5C23.745 10.5 24.75 11.505 24.75 12.75V17.25ZM30.75 12.75H28.5V14.25H30.75V16.5H28.5V19.5H26.25V10.5H30.75V12.75ZM13.5 14.25H15V12.75H13.5V14.25ZM6 9H3V30C3 31.65 4.35 33 6 33H27V30H6V9ZM21 17.25H22.5V12.75H21V17.25Z" fill="#273845"/>
</svg>
