<svg width="209" height="42" viewBox="0 0 209 42" fill="none" xmlns="http://www.w3.org/2000/svg">
<path fill-rule="evenodd" clip-rule="evenodd" d="M15.9272 8.40002C15.9272 12.5403 12.5643 15.8967 8.41614 15.8967C4.26782 15.8967 0.904907 12.5403 0.904907 8.40002C0.904907 4.25964 4.26782 0.903198 8.41614 0.903198C12.5643 0.903198 15.9272 4.25964 15.9272 8.40002ZM16.8322 8.40002C16.8322 13.0392 13.0642 16.7999 8.41614 16.7999C3.76807 16.7999 0 13.0392 0 8.40002C0 3.76086 3.76807 0 8.41614 0C13.0642 0 16.8322 3.76086 16.8322 8.40002ZM9.08142 10.7477C9.16553 10.986 9.24463 11.2098 9.31323 11.3838C9.58875 12.0829 10.2135 12.2599 10.7371 11.5077C10.9392 11.2245 11.4905 10.1625 11.6282 9.80847L11.6498 9.75305C11.7266 9.5564 11.8083 9.3468 11.8671 9.14465C12.1427 8.29504 12.308 7.41895 12.0232 6.55164C11.5145 5.39844 10.3051 5.11401 9.24841 5.54517C9.14636 5.58691 9.04565 5.63525 8.94714 5.69019C8.84998 5.74438 8.755 5.80481 8.66284 5.87158C8.62805 5.89685 8.59375 5.92285 8.55981 5.94983V5.96753C8.5824 5.98975 8.60583 6.01111 8.63049 6.03174C8.80981 6.18164 9.04346 6.28552 9.30823 6.34338C9.52588 6.39087 9.76453 6.40723 10.0114 6.39233C9.72046 6.49268 9.39453 6.53186 9.08521 6.49182C9.06287 6.48901 9.04053 6.48572 9.01843 6.48193C8.76575 6.43945 8.52686 6.34253 8.33044 6.18115C8.2782 6.13818 8.22888 6.09058 8.18323 6.03833C8.1698 6.02112 8.15417 6.00598 8.13855 5.99084L8.13733 5.98962L8.13281 5.98523L8.11475 5.96753C8.10925 5.96179 8.10376 5.95593 8.09863 5.94983L8.09131 5.94092C7.99451 5.86389 7.89392 5.79407 7.79065 5.73157C6.65979 5.04749 5.20044 5.24524 4.62793 6.54272C4.34314 7.41003 4.50854 8.28625 4.78418 9.13586C4.84851 9.36597 4.94031 9.59607 5.03223 9.80847C5.17004 10.1625 5.72119 11.2245 5.92334 11.5077C6.4469 12.2599 7.07166 12.0829 7.34729 11.3838C7.41541 11.2109 7.49402 10.9886 7.57764 10.7521C7.83228 10.0321 8.13391 9.17908 8.33093 9.17908C8.52759 9.17908 8.82751 10.0286 9.08142 10.7477ZM9.81592 12.7205C10.4989 12.8208 11.0375 12.4039 11.3743 11.9218C11.5099 11.7306 11.719 11.3516 11.8943 11.016C12.0743 10.6714 12.2638 10.2855 12.3488 10.0673L12.3711 10.0099C12.4449 9.82092 12.5367 9.58569 12.6047 9.35437C12.8923 8.46497 13.1125 7.41248 12.7568 6.32935L12.7458 6.29578L12.7314 6.26331C12.3137 5.31641 11.5096 4.76819 10.6005 4.64307C9.82104 4.53589 9.0105 4.74329 8.33228 5.19006C7.65137 4.73718 6.83533 4.52625 6.05078 4.63428C5.1416 4.7594 4.3374 5.30762 3.91968 6.25439L3.9054 6.28687L3.89441 6.32043C3.53918 7.40234 3.7583 8.45337 4.04541 9.34216C4.12109 9.60901 4.22375 9.8645 4.31689 10.0807C4.4043 10.301 4.58972 10.6783 4.76611 11.016C4.94141 11.3516 5.15051 11.7306 5.28613 11.9218C5.62292 12.4039 6.1615 12.8208 6.8446 12.7205C7.49548 12.6249 7.88306 12.1111 8.06665 11.6454C8.16199 11.4031 8.25159 11.1041 8.33093 10.8252C8.40955 11.104 8.49841 11.4031 8.59363 11.645C8.77734 12.1111 9.16492 12.6249 9.81592 12.7205ZM8.68311 9.76904C8.68323 9.7699 8.67871 9.77722 8.66931 9.7887C8.67822 9.7738 8.68298 9.76819 8.68311 9.76904ZM7.99609 9.79065C7.98755 9.78027 7.9834 9.77356 7.98352 9.77271C7.98364 9.77197 7.98792 9.77722 7.99609 9.79065Z" transform="translate(189.362 2.80005)" fill="white"/>
<path d="M0.0897718 25.2075L0 17.8603H1.73559C3.15199 16.4267 4.33897 14.4057 5.29654 11.7973C6.27405 9.18898 6.90246 5.9136 7.18175 1.9712L4.63821 1.6128V0H19.9593V1.6128L17.7449 1.85173C17.705 3.08622 17.685 4.32071 17.685 5.5552C17.685 6.78969 17.685 8.02418 17.685 9.25867V10.3637C17.685 11.638 17.685 12.9024 17.685 14.1568C17.685 15.3913 17.705 16.6258 17.7449 17.8603H20.7074L20.6176 25.2075H18.2835L17.4756 19.6224H3.23179L2.39391 25.2075H0.0897718ZM12.6877 9.28853C12.6877 8.01422 12.6877 6.74987 12.6877 5.49547C12.6877 4.24107 12.6678 2.99662 12.6279 1.76213H9.1268C8.84751 5.56516 8.27896 8.81067 7.42114 11.4987C6.56332 14.1867 5.56585 16.3072 4.42874 17.8603H12.6279C12.6678 16.6059 12.6877 15.3614 12.6877 14.1269C12.6877 12.8725 12.6877 11.6181 12.6877 10.3637V9.28853Z" transform="translate(0.119751 13.9777)" fill="white"/>
<path d="M29.3327 4.71893C30.3102 4.71893 31.188 4.87822 31.966 5.1968C32.744 5.51538 33.3924 5.96338 33.9111 6.5408C34.4298 7.09831 34.8287 7.76533 35.108 8.54187C35.3873 9.3184 35.527 10.1547 35.527 11.0507C35.527 11.6281 35.4671 12.1557 35.3474 12.6336H26.6994C26.7592 13.43 26.8989 14.117 27.1183 14.6944C27.3378 15.2718 27.627 15.7497 27.9861 16.128C28.3452 16.5063 28.7542 16.7851 29.213 16.9643C29.6918 17.1435 30.1905 17.2331 30.7092 17.2331C31.5271 17.2331 32.2154 17.0837 32.774 16.7851C33.3525 16.4665 33.8712 16.0782 34.33 15.6203L35.3773 16.576C34.7589 17.7707 33.921 18.6567 32.8637 19.2341C31.8064 19.7916 30.5496 20.0704 29.0933 20.0704C27.9961 20.0704 26.9887 19.9012 26.071 19.5627C25.1733 19.2043 24.3953 18.6965 23.7369 18.0395C23.0786 17.3824 22.5599 16.586 22.1809 15.6501C21.8218 14.6944 21.6423 13.6192 21.6423 12.4245C21.6423 11.1701 21.8617 10.0651 22.3006 9.10933C22.7395 8.1536 23.318 7.35716 24.0362 6.72C24.7543 6.06293 25.5723 5.56516 26.4899 5.22667C27.4275 4.88818 28.3751 4.71893 29.3327 4.71893ZM29.0335 6.272C28.7542 6.272 28.4749 6.35164 28.1956 6.51093C27.9363 6.67022 27.6969 6.93902 27.4774 7.31733C27.2779 7.69564 27.0984 8.19342 26.9388 8.81067C26.7991 9.408 26.7193 10.1646 26.6994 11.0805H29.2429C29.9611 11.0805 30.4399 10.9412 30.6793 10.6624C30.9386 10.3637 31.0683 9.87591 31.0683 9.19893C31.0683 8.20338 30.8688 7.46667 30.4698 6.9888C30.0708 6.51093 29.592 6.272 29.0335 6.272Z" transform="translate(0.119751 13.9777)" fill="white"/>
<path d="M37.2471 19.6224V18.2187L38.8331 17.8901C38.853 17.1534 38.863 16.3769 38.863 15.5605C38.863 14.7243 38.863 13.9876 38.863 13.3504V11.4688C38.863 10.8316 38.863 10.0949 38.863 9.25867C38.863 8.4224 38.853 7.63591 38.8331 6.8992L37.2471 6.57067V5.1968H45.2667V6.57067L43.6808 6.8992C43.6808 7.57618 43.6708 8.30293 43.6508 9.07947C43.6508 9.83609 43.6508 10.533 43.6508 11.1701H48.4087C48.4087 10.533 48.3988 9.83609 48.3788 9.07947C48.3788 8.30293 48.3788 7.57618 48.3788 6.8992L46.7929 6.57067V5.1968H54.8125V6.57067L53.2265 6.8992C53.2066 7.63591 53.1966 8.4224 53.1966 9.25867C53.1966 10.0949 53.1966 10.8316 53.1966 11.4688V13.3504C53.1966 13.9876 53.1966 14.7243 53.1966 15.5605C53.1966 16.3769 53.2066 17.1534 53.2265 17.8901L54.8125 18.2187V19.6224H46.7929V18.2187L48.3788 17.8901C48.3788 17.1733 48.3788 16.3669 48.3788 15.4709C48.3988 14.5749 48.4087 13.669 48.4087 12.7531H43.6508C43.6508 13.669 43.6508 14.5749 43.6508 15.4709C43.6708 16.3669 43.6808 17.1733 43.6808 17.8901L45.2667 18.2187V19.6224H37.2471Z" transform="translate(0.119751 13.9777)" fill="white"/>
<path d="M56.0623 10.6027L56.182 5.1968H71.2936L71.3833 10.6027H69.528L68.7799 6.74987H66.1466C66.1267 7.50649 66.1167 8.32284 66.1167 9.19893C66.1167 10.0551 66.1167 10.8117 66.1167 11.4688V13.3504C66.1167 13.9876 66.1167 14.7143 66.1167 15.5307C66.1167 16.347 66.1267 17.1236 66.1466 17.8603L67.9421 18.2187V19.6224H59.5035V18.2187L61.299 17.8603C61.3189 17.1236 61.3289 16.347 61.3289 15.5307C61.3289 14.7143 61.3289 13.9876 61.3289 13.3504V11.4688C61.3289 10.8117 61.3289 10.0551 61.3289 9.19893C61.3289 8.32284 61.3189 7.50649 61.299 6.74987H58.6656L57.9175 10.6027H56.0623Z" transform="translate(0.119751 13.9777)" fill="white"/>
<path d="M78.8028 17.6512C79.0821 17.6512 79.3514 17.5915 79.6108 17.472C79.8901 17.3326 80.2292 17.1236 80.6282 16.8448V11.9765C80.3489 12.0761 80.0896 12.1657 79.8502 12.2453C79.6108 12.325 79.4013 12.4046 79.2218 12.4843C78.5435 12.763 78.0048 13.1612 77.6059 13.6789C77.2069 14.1767 77.0074 14.774 77.0074 15.4709C77.0074 16.2276 77.1769 16.7851 77.5161 17.1435C77.8552 17.482 78.2841 17.6512 78.8028 17.6512ZM84.0694 20.0405C83.1917 20.0405 82.4735 19.8613 81.9149 19.5029C81.3763 19.1246 80.9972 18.587 80.7778 17.8901C80.4586 18.2286 80.1494 18.5372 79.8502 18.816C79.5709 19.0748 79.2617 19.3038 78.9225 19.5029C78.6033 19.6821 78.2442 19.8215 77.8453 19.9211C77.4662 20.0206 77.0174 20.0704 76.4987 20.0704C75.3416 20.0704 74.394 19.7518 73.6559 19.1147C72.9377 18.4576 72.5786 17.5019 72.5786 16.2475C72.5786 15.7099 72.6584 15.222 72.818 14.784C72.9976 14.326 73.2968 13.898 73.7158 13.4997C74.1546 13.0816 74.7431 12.6933 75.4813 12.3349C76.2393 11.9765 77.1969 11.6281 78.354 11.2896C78.6532 11.19 79.0023 11.0905 79.4013 10.9909C79.8003 10.8914 80.2092 10.7918 80.6282 10.6923V9.70667C80.6282 9.0496 80.5883 8.50204 80.5085 8.064C80.4486 7.60604 80.319 7.24764 80.1195 6.9888C79.9399 6.72996 79.6906 6.55076 79.3714 6.4512C79.0721 6.33173 78.6831 6.272 78.2043 6.272C78.0647 6.272 77.935 6.272 77.8153 6.272C77.6956 6.272 77.556 6.28196 77.3964 6.30187L77.2468 7.616C77.2069 8.61156 76.9775 9.32836 76.5585 9.7664C76.1396 10.1845 75.6409 10.3936 75.0623 10.3936C73.9651 10.3936 73.2968 9.89582 73.0574 8.90027C73.1372 7.64587 73.7557 6.64036 74.9127 5.88373C76.0897 5.1072 77.7655 4.71893 79.9399 4.71893C81.8551 4.71893 83.2216 5.16693 84.0395 6.06293C84.8774 6.93902 85.2963 8.37262 85.2963 10.3637V17.0539C85.2963 17.6313 85.5158 17.92 85.9546 17.92C86.1142 17.92 86.2639 17.8802 86.4035 17.8005C86.5432 17.701 86.6928 17.5218 86.8524 17.2629L87.6603 17.8005C87.3012 18.6169 86.8324 19.1943 86.2539 19.5328C85.6953 19.8713 84.9672 20.0405 84.0694 20.0405Z" transform="translate(0.119751 13.9777)" fill="white"/>
<path d="M90.4757 19.9808C89.6977 19.9808 89.0893 19.7618 88.6504 19.3237C88.2314 18.8857 88.022 18.1888 88.022 17.2331C88.2215 16.7751 88.5107 16.4167 88.8898 16.1579C89.2887 15.8791 89.7675 15.7397 90.3261 15.7397C90.6652 15.7397 90.9645 15.7995 91.2238 15.9189C91.4832 16.0185 91.7226 16.1678 91.942 16.3669C92.2412 15.9289 92.4906 15.3614 92.6901 14.6645C92.9893 13.669 93.2188 12.5241 93.3783 11.2299C93.5579 9.93565 93.6876 8.54187 93.7674 7.04853L91.6428 6.57067V5.1968H104.839V6.57067L103.253 6.8992C103.233 7.63591 103.223 8.4224 103.223 9.25867C103.223 10.0949 103.223 10.8316 103.223 11.4688V13.3504C103.223 13.9876 103.223 14.7243 103.223 15.5605C103.223 16.3769 103.233 17.1534 103.253 17.8901L104.839 18.2187V19.6224H96.8196V18.2187L98.4056 17.8901C98.4255 17.1534 98.4355 16.3769 98.4355 15.5605C98.4355 14.7243 98.4355 13.9876 98.4355 13.3504V11.4688C98.4355 10.8117 98.4355 10.0551 98.4355 9.19893C98.4355 8.32284 98.4255 7.50649 98.4056 6.74987H95.4431C95.3833 8.36267 95.2536 9.91573 95.0541 11.4091C94.8745 12.9024 94.5853 14.336 94.1863 15.7099C93.7275 17.3028 93.1789 18.4178 92.5405 19.0549C91.9221 19.6722 91.2338 19.9808 90.4757 19.9808Z" transform="translate(0.119751 13.9777)" fill="white"/>
<path d="M113.081 19.6224V18.0096L115.325 17.7707C115.365 16.5362 115.385 15.3017 115.385 14.0672C115.385 12.8128 115.385 11.5385 115.385 10.2443V9.37813C115.385 8.12373 115.385 6.86933 115.385 5.61493C115.385 4.36053 115.365 3.10613 115.325 1.85173L113.081 1.6128V0H128.402L128.492 5.5552H126.098L125.41 1.67253H120.383C120.343 2.76764 120.323 3.8528 120.323 4.928C120.323 5.98329 120.323 6.9888 120.323 7.94453C121.101 7.8848 121.899 7.85493 122.717 7.85493C124.053 7.85493 125.19 8.01422 126.128 8.3328C127.086 8.65138 127.864 9.06951 128.462 9.5872C129.08 10.1049 129.529 10.7122 129.809 11.4091C130.088 12.106 130.228 12.8228 130.228 13.5595C130.228 14.2763 130.098 15.003 129.839 15.7397C129.599 16.4565 129.15 17.1036 128.492 17.6811C127.854 18.2585 126.956 18.7264 125.799 19.0848C124.662 19.4432 123.195 19.6224 121.4 19.6224H113.081ZM120.323 10.2443C120.323 11.5385 120.323 12.8228 120.323 14.0971C120.323 15.3515 120.343 16.6158 120.383 17.8901H121.25C122.507 17.8901 123.495 17.5516 124.213 16.8747C124.931 16.1778 125.29 15.1125 125.29 13.6789C125.29 12.325 124.971 11.3095 124.333 10.6325C123.714 9.93565 122.687 9.5872 121.25 9.5872C121.091 9.5872 120.931 9.5872 120.772 9.5872C120.632 9.5872 120.482 9.59716 120.323 9.61707V10.2443Z" transform="translate(0.119751 13.9777)" fill="white"/>
<path d="M147.554 20.0704C145.4 20.0704 143.724 19.4133 142.527 18.0992C141.35 16.7652 140.722 14.9831 140.642 12.7531H138.098C138.098 13.669 138.098 14.5749 138.098 15.4709C138.118 16.3669 138.128 17.1733 138.128 17.8901L139.714 18.2187V19.6224H131.695V18.2187L133.281 17.8901C133.3 17.1534 133.31 16.3769 133.31 15.5605C133.31 14.7243 133.31 13.9876 133.31 13.3504V11.4688C133.31 10.8316 133.31 10.0949 133.31 9.25867C133.31 8.4224 133.3 7.63591 133.281 6.8992L131.695 6.57067V5.1968H139.714V6.57067L138.128 6.8992C138.128 7.57618 138.118 8.30293 138.098 9.07947C138.098 9.83609 138.098 10.533 138.098 11.1701H140.702C140.921 9.17902 141.639 7.60604 142.856 6.4512C144.073 5.29636 145.629 4.71893 147.524 4.71893C148.562 4.71893 149.509 4.89813 150.367 5.25653C151.245 5.59502 151.993 6.0928 152.611 6.74987C153.23 7.40693 153.709 8.20338 154.048 9.1392C154.407 10.075 154.586 11.1403 154.586 12.3349C154.586 13.5296 154.427 14.6048 154.108 15.5605C153.788 16.4964 153.33 17.3028 152.731 17.9797C152.133 18.6567 151.394 19.1744 150.517 19.5328C149.659 19.8912 148.671 20.0704 147.554 20.0704ZM147.464 18.5173C148.302 18.5173 148.921 18.0594 149.32 17.1435C149.739 16.2076 149.948 14.6347 149.948 12.4245C149.948 10.1945 149.739 8.62151 149.32 7.7056C148.921 6.76978 148.302 6.30187 147.464 6.30187C147.046 6.30187 146.676 6.41138 146.357 6.6304C146.058 6.84942 145.809 7.19787 145.609 7.67573C145.43 8.1536 145.29 8.7808 145.19 9.55733C145.09 10.3339 145.041 11.2896 145.041 12.4245C145.041 13.5396 145.081 14.4853 145.16 15.2619C145.26 16.0384 145.41 16.6656 145.609 17.1435C145.809 17.6213 146.058 17.9698 146.357 18.1888C146.676 18.4078 147.046 18.5173 147.464 18.5173Z" transform="translate(0.119751 13.9777)" fill="white"/>
<path d="M167.528 12.3947C167.528 10.6226 167.258 9.33831 166.72 8.54187C166.181 7.72551 165.463 7.31733 164.565 7.31733C164.186 7.31733 163.827 7.39698 163.488 7.55627C163.169 7.71556 162.85 7.91467 162.53 8.1536V16.8149C163.129 17.3127 163.777 17.5616 164.476 17.5616C165.373 17.5616 166.101 17.1534 166.66 16.3371C167.239 15.5008 167.528 14.1867 167.528 12.3947ZM157.773 19.712V11.6181C157.773 11.2 157.773 10.8416 157.773 10.5429C157.773 10.2443 157.763 9.97547 157.743 9.73653C157.743 9.47769 157.733 9.2288 157.713 8.98987C157.713 8.73102 157.703 8.45227 157.683 8.1536L155.828 7.8848V6.72L161.693 4.71893L162.201 5.0176L162.321 6.72C163.598 5.38596 165.074 4.71893 166.75 4.71893C167.568 4.71893 168.326 4.88818 169.024 5.22667C169.742 5.54525 170.361 6.03307 170.879 6.69013C171.418 7.32729 171.837 8.12373 172.136 9.07947C172.455 10.0153 172.615 11.1004 172.615 12.3349C172.615 13.5296 172.435 14.6048 172.076 15.5605C171.737 16.5163 171.268 17.3326 170.67 18.0096C170.091 18.6667 169.413 19.1744 168.635 19.5328C167.857 19.8912 167.049 20.0704 166.211 20.0704C165.413 20.0704 164.705 19.931 164.087 19.6523C163.488 19.3934 162.939 19.0052 162.441 18.4875V19.6821C162.441 20.4188 162.441 21.1854 162.441 21.9819C162.461 22.7783 162.481 23.6345 162.501 24.5504L164.416 24.9984V26.4021H156.037V24.9984L157.713 24.64C157.733 23.6843 157.743 22.8082 157.743 22.0117C157.763 21.2153 157.773 20.4487 157.773 19.712Z" transform="translate(0.119751 13.9777)" fill="white"/>
<path d="M182.136 20.0704C180.959 20.0704 179.901 19.8812 178.964 19.5029C178.026 19.1246 177.228 18.597 176.57 17.92C175.911 17.243 175.403 16.4366 175.044 15.5008C174.704 14.5451 174.535 13.4898 174.535 12.3349C174.535 11.2 174.724 10.1646 175.103 9.2288C175.502 8.29298 176.041 7.49653 176.719 6.83947C177.418 6.16249 178.225 5.6448 179.143 5.2864C180.061 4.90809 181.058 4.71893 182.136 4.71893C183.193 4.71893 184.18 4.89813 185.098 5.25653C186.036 5.61493 186.844 6.12267 187.522 6.77973C188.22 7.4368 188.759 8.2432 189.138 9.19893C189.537 10.1348 189.736 11.1801 189.736 12.3349C189.736 13.5097 189.557 14.5749 189.198 15.5307C188.839 16.4665 188.33 17.2729 187.671 17.9499C187.013 18.6268 186.215 19.1545 185.278 19.5328C184.34 19.8912 183.293 20.0704 182.136 20.0704ZM182.136 18.5173C182.973 18.5173 183.602 18.0395 184.021 17.0837C184.44 16.1081 184.649 14.555 184.649 12.4245C184.649 10.294 184.44 8.74098 184.021 7.76533C183.602 6.78969 182.973 6.30187 182.136 6.30187C181.278 6.30187 180.639 6.78969 180.22 7.76533C179.801 8.74098 179.592 10.294 179.592 12.4245C179.592 14.555 179.801 16.1081 180.22 17.0837C180.639 18.0395 181.278 18.5173 182.136 18.5173Z" transform="translate(0.119751 13.9777)" fill="white"/>
</svg>
