<svg width="106" height="84" viewBox="0 0 106 84" fill="none" xmlns="http://www.w3.org/2000/svg">
<path d="M0.272972 52.3716C0.272972 40.7391 4.15047 30.3403 11.9055 21.1753C19.6605 12.0103 29.9711 5.13659 42.8374 0.554085L47.5961 11.6578C44.0711 13.5966 40.1936 16.5047 35.9636 20.3822C31.9099 24.0835 28.1205 28.4016 24.5955 33.3366L37.5499 42.061C41.6036 44.881 44.3355 47.9653 45.7455 51.3141C47.1555 54.4866 47.8605 57.9235 47.8605 61.6247C47.8605 64.621 47.2436 67.441 46.0099 70.0847C44.7761 72.7285 43.1017 75.0197 40.9867 76.9585C38.8717 78.8972 36.4923 80.4835 33.8486 81.7172C31.2048 82.7747 28.473 83.3035 25.653 83.3035C21.2467 83.3035 17.5455 82.4222 14.5492 80.6597C11.553 78.8972 8.99734 77.2228 6.88235 75.6366C4.59109 72.1116 2.91673 68.4103 1.85922 64.5328C0.801727 60.4791 0.272972 56.4253 0.272972 52.3716Z" fill="white"/>
<path d="M57.8468 52.3716C57.8468 40.7391 61.7243 30.3403 69.4793 21.1753C77.2343 12.0103 87.545 5.13659 100.411 0.554085L105.17 11.6578C101.645 13.5966 97.7675 16.5047 93.5375 20.3822C89.4837 24.0835 85.6943 28.4016 82.1693 33.3366L95.1237 42.061C99.1775 44.881 101.909 47.9653 103.319 51.3141C104.729 54.4866 105.434 57.9235 105.434 61.6247C105.434 64.621 104.817 67.441 103.584 70.0847C102.35 72.7285 100.676 75.0197 98.5606 76.9585C96.4456 78.8972 94.0662 80.4835 91.4225 81.7172C88.7787 82.7747 86.0468 83.3035 83.2268 83.3035C78.8206 83.3035 75.1193 82.4222 72.1231 80.6597C69.1268 78.8972 66.5712 77.2228 64.4562 75.6366C62.165 72.1116 60.4906 68.4103 59.4331 64.5328C58.3756 60.4791 57.8468 56.4253 57.8468 52.3716Z" fill="white"/>
</svg>
