<svg width="60" height="59" viewBox="0 0 60 59" fill="none" xmlns="http://www.w3.org/2000/svg">
<path fill-rule="evenodd" clip-rule="evenodd" d="M36.5396 22.6857L36.5382 22.6848L36.5374 22.6841C34.6552 21.2772 32.7883 19.8817 31.2869 17.9488C31.0663 17.6651 30.8141 17.3569 30.5454 17.0286C28.9995 15.1398 26.9088 12.5853 27.1525 10.1787C27.085 8.13044 28.0808 6.57801 29.895 7.40236C30.9881 7.89912 30.784 6.45784 30.6142 5.25886C30.5397 4.73317 30.4718 4.25404 30.5228 4.00526C30.8712 2.30073 32.198 1.79634 33.5034 1.30006C34.0612 1.08802 34.615 0.877453 35.0871 0.57539C36.8917 -0.57909 36.9447 0.202831 37.0108 1.1783C37.0568 1.85804 37.1091 2.63185 37.765 2.90992C38.1687 3.08119 38.6698 2.86543 39.1375 2.66414C39.3904 2.55525 39.6336 2.45057 39.8462 2.41365C40.9387 2.22352 42.0639 2.59352 43.1073 2.93666L43.2254 2.97541C45.1555 3.6078 46.8715 4.68379 48.0066 6.58754C48.762 7.85334 49.2562 11.1757 47.2572 11.6214C46.9516 11.6895 46.4639 10.8292 45.893 9.82173C45.2092 8.61537 44.4059 7.19801 43.6522 6.91133C39.2787 5.2458 35.5768 10.2858 36.5419 14.8932C37.6933 20.3853 41.6311 23.6196 46.0282 25.749C46.4491 25.9533 47.2558 26.6256 46.4447 27.1019C45.5413 27.6318 43.8898 26.8934 43.0582 26.4719C42.6978 26.2895 42.3447 26.1145 41.9976 25.9424L41.9724 25.9299L41.9634 25.9255C40.2633 25.083 38.7014 24.309 37.0684 23.0816C36.8987 22.9541 36.7288 22.8271 36.559 22.7002L36.5396 22.6857ZM41.7466 52.9909C43.6605 53.1065 45.4088 52.0051 46.3269 50.1358C46.4384 49.9088 46.5554 49.5152 46.6858 49.0762C47.1165 47.627 47.6939 45.6837 48.7058 47.6165C51.0011 52.0035 44.9351 56.568 41.7113 56.6168C40.5894 56.6337 39.4204 56.534 38.3073 56.39C37.72 56.3143 37.513 57.0395 37.325 57.6982L37.3247 57.6991C37.2301 58.0303 37.1403 58.3446 37.0093 58.5317C36.1059 59.8216 32.7913 58.1343 31.8717 57.2211C30.6675 56.0272 30.2202 54.0268 30.8406 52.3552C30.8949 52.2094 32.1107 48.9044 30.9418 50.1083C30.7515 50.3043 30.5806 50.6155 30.4025 50.94C30.0619 51.5605 29.6946 52.2297 29.1129 52.2355C26.7794 52.259 27.0963 47.2939 27.7709 45.9373C28.8167 43.8359 30.1865 41.932 31.8878 40.4523C36.1441 36.7517 40.2814 34.3594 45.1726 31.9251C45.7095 31.6576 46.6951 32.1252 46.1538 32.923C45.6963 33.5964 44.7587 34.0565 43.8905 34.4824L43.8893 34.483C43.4247 34.7109 42.9801 34.9291 42.6398 35.165C40.3591 36.747 38.6109 39.1618 37.5329 41.9031C36.1132 45.5117 36.4094 53.7423 41.7466 52.9909ZM9.52455 23.9328C10.475 27.7645 5.75819 29.8187 3.26344 28.0785C-4.09325 22.9451 2.18105 13.5936 10.2902 13.9654C14.0769 13.9343 16.4075 15.8216 18.569 17.572L18.7996 17.7586C19.3372 18.1928 19.9002 18.6312 20.4733 19.0775L20.4913 19.0916C22.6059 20.7376 24.8574 22.4904 26.4863 24.5309C27.7872 26.16 25.2089 25.3395 24.8012 25.1204C23.4707 24.4061 22.211 23.5657 20.9472 22.7225L20.9448 22.721C20.6351 22.5143 20.3252 22.3075 20.0139 22.1023C19.8507 21.9948 19.6863 21.8858 19.5208 21.776C16.9588 20.0773 14.114 18.1912 11.0557 18.5718C9.91469 18.7138 7.91566 19.1226 7.28358 20.3854C7.0652 20.8226 7.74086 21.5944 8.40919 22.3579C8.91676 22.9377 9.42018 23.5128 9.52455 23.9328ZM21.6123 36.4824C22.8449 35.5864 24.0806 34.6882 25.4434 34.0459C28.0101 32.8354 26.2688 35.2911 25.2905 36.0319C24.0603 36.9638 22.8545 38.0303 21.6421 39.1028C17.2981 42.9453 12.8692 46.863 6.92592 44.9245C3.84999 43.9208 0.403092 41.5893 0.0245515 37.6835C-0.303573 34.3071 2.72035 30.9365 5.82436 31.2173C8.256 30.9312 10.079 33.4959 9.44655 36.0578C9.25221 36.8422 8.77589 37.2385 8.30409 37.631C7.92519 37.9462 7.54945 38.2589 7.32521 38.7681C6.56215 40.5042 10.833 40.7551 11.5189 40.7426C14.908 40.6813 18.0121 39.0578 20.8059 37.0649C21.067 36.8786 21.3272 36.6896 21.5873 36.5006L21.6123 36.4824ZM40.6305 28.136C41.6332 28.3046 42.6577 28.4768 43.5849 28.8874C45.2465 29.6222 43.5746 30.5032 42.6461 30.5032C41.3291 30.6586 41.6856 30.6275 42.1255 30.5775C39.1013 30.9996 36.1797 31.9715 33.4811 33.5729C33.3156 33.671 33.1297 33.7696 32.9346 33.8729C32.1217 34.3037 31.1517 34.8176 30.8573 35.7286C30.7999 35.9066 30.7522 36.1491 30.7005 36.4124C30.489 37.4882 30.2088 38.9139 28.914 37.732C27.907 36.8131 28.1006 35.7611 28.2764 34.8066C28.4566 33.8273 28.6179 32.9508 27.4444 32.4263C24.8191 31.2523 24.5565 28.2466 27.4238 27.1521C28.5589 26.7188 28.3173 25.9043 28.0368 24.9586C27.7616 24.0309 27.4489 22.9768 28.3611 22.0321C29.8357 20.5042 30.4241 21.7984 31.0501 23.1752C31.3605 23.8579 31.6801 24.5609 32.1216 24.9502C34.1968 26.7791 37.0861 27.4547 39.6249 27.957C39.9519 28.0219 40.286 28.0781 40.6226 28.1347L40.6305 28.136ZM48.1734 31.3178C47.5042 30.9916 46.8263 30.6611 46.447 30.0808C45.548 28.7044 47.2973 27.7442 48.4807 27.0946C48.8051 26.9165 49.0869 26.7618 49.2601 26.6282C49.8234 26.1939 50.0265 25.5895 50.2301 24.9836C50.4957 24.1933 50.7621 23.4006 51.8296 22.9795C54.3567 21.9818 60.323 25.8579 59.6983 29.1837C60.1675 32.3482 56.0184 35.7129 53.4782 35.6596C51.1931 35.6116 50.7033 34.8382 49.9905 32.83C49.7213 32.0723 48.9533 31.698 48.1734 31.3178ZM17.9893 25.7998C12.776 25.9615 13.554 35.0463 18.5123 33.7886C22.3848 32.8066 22.2006 25.2391 17.9893 25.7998Z" fill="#ffffff"/>
</svg>
