<svg width="38" height="200" viewBox="0 0 38 200" fill="none" xmlns="http://www.w3.org/2000/svg">
<path fill-rule="evenodd" clip-rule="evenodd" d="M36.5 0V200H37.5V0H36.5ZM2.93945 13.6293C1.4541 15.3843 0.711914 17.3755 0.711914 19.603C0.711914 20.3793 0.812988 21.1555 1.01562 21.9318C1.21826 22.6742 1.53857 23.3831 1.97754 24.058C2.17529 24.2065 2.39355 24.3591 2.63232 24.5157C2.88135 24.6793 3.15283 24.8474 3.4458 25.0199C4.01953 25.3574 4.72803 25.5261 5.57178 25.5261C6.11182 25.5261 6.63477 25.4249 7.14111 25.2224C7.64746 24.9861 8.10303 24.6824 8.5083 24.3112C8.72168 24.1155 8.91162 23.901 9.07812 23.6678C9.22754 23.4586 9.3584 23.2343 9.46973 22.9949C9.70605 22.4886 9.82422 21.9486 9.82422 21.3749C9.82422 20.6661 9.68945 20.0081 9.41943 19.4005C9.14941 18.7593 8.62598 18.1686 7.8501 17.6287L5.36914 15.958C6.04443 15.0129 6.77002 14.1862 7.54639 13.4774C8.35645 12.7349 9.09863 12.178 9.77393 11.8068L8.8623 9.68054C6.39893 10.558 4.42432 11.8743 2.93945 13.6293ZM13.9644 13.6293C12.479 15.3843 11.7368 17.3755 11.7368 19.603C11.7368 20.3793 11.8379 21.1555 12.0405 21.9318C12.2427 22.6742 12.5635 23.3831 13.0024 24.058C13.4072 24.3617 13.8965 24.6824 14.4702 25.0199C15.0439 25.3574 15.7529 25.5261 16.5967 25.5261C17.1367 25.5261 17.6597 25.4249 18.166 25.2224C18.6724 24.9861 19.1279 24.6824 19.5327 24.3112C19.938 23.9398 20.2583 23.5011 20.4946 22.9949C20.731 22.4886 20.8491 21.9486 20.8491 21.3749C20.8491 20.6661 20.7144 20.0081 20.4443 19.4005C20.4248 19.3542 20.4038 19.3083 20.3818 19.2626C20.3652 19.2277 20.3477 19.193 20.3291 19.1583C20.0371 18.6099 19.5522 18.0999 18.8745 17.6287L16.394 15.958C17.0693 15.0129 17.7949 14.1862 18.5708 13.4774C19.3809 12.7349 20.1235 12.178 20.7983 11.8068L19.8872 9.68054C17.4233 10.558 15.4492 11.8743 13.9644 13.6293Z" fill="#89B0AE"/>
</svg>
