<svg width="16" height="16" viewBox="0 0 16 16" fill="none" xmlns="http://www.w3.org/2000/svg">
<path fill-rule="evenodd" clip-rule="evenodd" d="M7.6234 6.7086H7.1416L6.97084 6.54393C7.56852 5.84868 7.92834 4.94606 7.92834 3.96417C7.92834 1.77473 6.15361 0 3.96417 0C1.77473 0 0 1.77473 0 3.96417C0 6.15361 1.77473 7.92834 3.96417 7.92834C4.94606 7.92834 5.84868 7.56852 6.54393 6.97084L6.7086 7.1416V7.6234L9.75796 10.6667L10.6667 9.75796L7.6234 6.7086ZM3.96418 6.70858C2.4456 6.70858 1.21976 5.48273 1.21976 3.96415C1.21976 2.44557 2.4456 1.21973 3.96418 1.21973C5.48276 1.21973 6.70861 2.44557 6.70861 3.96415C6.70861 5.48273 5.48276 6.70858 3.96418 6.70858Z" transform="translate(2.66669 2.66663)" fill="white"/>
</svg>
